<svg id="Layer_2" data-name="Layer 2" xmlns="http://www.w3.org/2000/svg" viewBox="0 0 264.773 85.039"><defs><style>.cls-1{fill:#fff;}</style></defs><path class="cls-1" d="M28.346,28.7h6.081V51.456H44.543v4.878h-16.2Z"/><path class="cls-1" d="M56.031,28.7h6.786l10.11,27.632H66.321l-1.774-5.5H53.769l-1.866,5.5H45.649Zm6.915,17.257-2.3-7.1c-.531-1.644-1.063-3.241-1.371-4.526h-.087c-.359,1.24-.9,2.929-1.428,4.526l-2.391,7.1Z"/><path class="cls-1" d="M76.035,28.7H86.374c5.852,0,9.442,3.68,9.442,9.093,0,5.143-3.547,8.915-9.628,8.915H82.11v9.624H76.035Zm9.356,13.487c2.929,0,4.258-1.73,4.258-4.394,0-2.617-1.329-4.3-4.258-4.3H82.11v8.7Z"/><path class="cls-1" d="M100.028,28.7h6.081V56.334h-6.081Z"/><path class="cls-1" d="M111.028,55.139V49.864a17.63,17.63,0,0,0,7.236,1.86c3.059,0,4.61-1.066,4.61-3.1,0-2.393-2.082-2.66-6.254-4.48-2.836-1.289-5.549-3.285-5.549-7.9,0-5.367,4.042-7.895,9.628-7.895a20.4,20.4,0,0,1,6.921,1.243v5.144a16.467,16.467,0,0,0-6.476-1.463c-2.75,0-4.042,1.021-4.042,2.795,0,1.862,1.558,2.438,4.351,3.505,3.59,1.819,7.762,2.619,7.762,8.827,0,5.367-4.215,8.3-9.845,8.3A20.749,20.749,0,0,1,111.028,55.139Z"/><path class="cls-1" d="M166.608,28.7h6.786L183.51,56.334H176.9l-1.767-5.5H164.346l-1.86,5.5h-6.26Zm6.922,17.257-2.312-7.1c-.531-1.644-1.063-3.241-1.372-4.526h-.086c-.359,1.24-.89,2.929-1.422,4.526l-2.4,7.1Z"/><path class="cls-1" d="M200.411,52.92l-4.925-7.629h-2.8V56.334h-6.075V28.7h10.777c5.68,0,9.054,3.195,9.054,8.341a7.48,7.48,0,0,1-5.105,7.141l4.345,6.385a2.713,2.713,0,0,0,2.447,1.375,4.531,4.531,0,0,0,.791-.046v4.526a7.428,7.428,0,0,1-2.033.269C204.224,56.693,202.407,55.982,200.411,52.92Zm-4.171-11.8c2.75,0,4.035-1.594,4.035-3.81,0-2.353-1.242-3.819-4.035-3.819h-3.553V41.12Z"/><path class="cls-1" d="M210.256,42.541c0-7.629,4.387-14.195,13.082-14.195,8.652,0,13.089,6.3,13.089,14.149,0,7.632-4.437,14.2-13.089,14.2C214.643,56.693,210.256,50.393,210.256,42.541Zm19.781-.046c0-5.852-2.348-9.137-6.7-9.137s-6.649,3.325-6.649,9.183,2.305,9.137,6.649,9.137S230.037,48.355,230.037,42.5Z"/><path class="cls-1" d="M134.078,56.693a7.466,7.466,0,0,1-2.039-.269V51.9a4.526,4.526,0,0,0,.791.046,2.692,2.692,0,0,0,2.441-1.375l4.35-6.385a7.479,7.479,0,0,1-5.1-7.141c0-5.146,3.374-8.341,9.053-8.341h10.778V56.334h-6.075V45.29h-2.8l-4.92,7.63C138.552,55.982,136.736,56.693,134.078,56.693ZM148.273,41.12V33.491H144.72c-2.794,0-4.036,1.465-4.036,3.819,0,2.216,1.286,3.81,4.036,3.81Z"/></svg>