<?xml version="1.0" encoding="utf-8"?>
<!-- Generator: Adobe Illustrator 24.2.0, SVG Export Plug-In . SVG Version: 6.00 Build 0)  -->
<svg version="1.1" id="Layer_1" xmlns="http://www.w3.org/2000/svg" xmlns:xlink="http://www.w3.org/1999/xlink" x="0px" y="0px"
	 viewBox="0 0 512 150.6" style="enable-background:new 0 0 512 150.6;" xml:space="preserve">
<style type="text/css">
	.st0{fill:#E20613;}
	.st1{fill:none;stroke:#cac0b8;stroke-width:3.6617;stroke-miterlimit:10;}
	.st2{fill:#cac0b8;}
</style>
<g>
	<path class="st0" d="M427.5,60.6c0.4-0.1-0.1-0.7,0-1.1c0.1-0.4,0.4-0.3,0.5-0.7c0.1-0.4-0.1-0.4,0-0.8c0.1-0.4-0.1-0.4,0-0.8
		c0.1-0.4,0.2-0.4,0.3-0.8c0.1-0.4,0.3-0.3,0.4-0.8c0.1-0.4-0.3-0.5-0.3-0.9c0.1-0.4,0.3-0.4,0.4-0.8c0.1-0.4,0.1-0.4,0.2-0.8
		c0.1-0.4-0.1-0.4,0-0.8c0.1-0.4,0.1-0.4,0.2-0.8c0.1-0.4,0.5-0.3,0.6-0.7c0.1-0.4-0.1-0.4,0-0.8c0.1-0.4-0.1-0.4,0-0.9
		c0.1-0.4,0.2-0.4,0.3-0.8c0.1-0.4,0-0.4,0.1-0.8c0.1-0.4,0.2-0.4,0.3-0.8c0.1-0.4,0.1-0.4,0.2-0.8c0.1-0.4,0.1-0.4,0.2-0.8
		c0.1-0.4,0.1-0.4,0.2-0.8c0.1-0.4,0.3-0.4,0.4-0.8c0.1-0.4-0.2-0.5-0.1-0.9c0.1-0.4-0.2-0.6,0.2-0.6c0.4,0,0,0.2,0.1,0.6
		c0.1,0.4,0.4,0.3,0.5,0.7c0.1,0.4-0.2,0.5-0.1,0.9c0.1,0.4,0.2,0.4,0.2,0.8c0.1,0.4,0.3,0.4,0.4,0.8c0.1,0.4,0,0.4,0.1,0.8
		c0.1,0.4,0,0.4,0.1,0.8c0.1,0.4,0.2,0.4,0.3,0.8c0.1,0.4-0.1,0.5-0.1,0.9c0.1,0.4,0.2,0.4,0.2,0.8c0.1,0.4,0.2,0.4,0.2,0.8
		c0.1,0.4,0,0.4,0.1,0.8c0.1,0.4,0.3,0.4,0.4,0.8c0.1,0.4-0.2,0.5-0.1,0.9c0.1,0.4,0.2,0.4,0.3,0.8c0.1,0.4,0,0.4,0.1,0.8
		c0.1,0.4,0.1,0.4,0.2,0.8c0.1,0.4,0.5,0.3,0.6,0.7c0.1,0.4,0.1,0.4,0.2,0.8c0.1,0.4,0,0.4,0.1,0.8c0.1,0.4,0,0.4,0.1,0.8
		c0.1,0.4,0.2,0.4,0.3,0.8s-0.4,1,0,1.1c0.4,0.1,0.3-0.6,0.6-0.9c0.3-0.3,0.5-0.1,0.8-0.4c0.3-0.3,0-0.5,0.3-0.8
		c0.3-0.3,0.3-0.3,0.6-0.6c0.3-0.3,0.4-0.2,0.7-0.5c0.3-0.3,0.3-0.3,0.6-0.6c0.3-0.3,0.3-0.3,0.6-0.6c0.3-0.3,0.4-0.2,0.6-0.5
		c0.3-0.3,0.2-0.4,0.5-0.7c0.3-0.3,0-0.5,0.3-0.8c0.3-0.3,0.5-0.1,0.8-0.4c0.3-0.3,0.3-0.3,0.6-0.6c0.3-0.3,0.4-0.2,0.6-0.5
		c0.3-0.3,0-0.5,0.3-0.8c0.3-0.3,0.2-0.3,0.5-0.6c0.3-0.3,0.6,0,0.9-0.3c0.3-0.3,0.2-0.3,0.5-0.6c0.3-0.3,0-0.5,0.3-0.8
		c0.3-0.3,0.4-0.2,0.7-0.5c0.3-0.3,0.3-0.2,0.6-0.6c0.3-0.3,0.2-0.4,0.5-0.7c0.3-0.3,0.4-0.2,0.7-0.5c0.3-0.3,0.1-0.8,0.4-0.6
		c0.4,0.2,0,0.3-0.2,0.7c-0.1,0.4-0.1,0.4-0.2,0.8c-0.1,0.4,0,0.4-0.1,0.8c-0.1,0.4-0.5,0.3-0.6,0.7c-0.1,0.4,0,0.4-0.1,0.8
		c-0.1,0.4,0.1,0.5,0,0.9c-0.1,0.4,0,0.4-0.2,0.8c-0.1,0.4-0.1,0.4-0.2,0.8c-0.1,0.4-0.3,0.4-0.4,0.7c-0.1,0.4-0.4,0.3-0.5,0.7
		c-0.1,0.4-0.1,0.4-0.2,0.8c-0.1,0.4,0.2,0.5,0.1,0.9c-0.1,0.4-0.4,0.3-0.5,0.7c-0.1,0.4,0.2,0.5,0,0.9c-0.1,0.4-0.1,0.4-0.3,0.8
		c-0.1,0.4-0.4,0.3-0.5,0.7c-0.1,0.4,0.1,0.5,0,0.9c-0.1,0.4-0.3,0.3-0.4,0.7c-0.1,0.4-0.2,0.4-0.3,0.8c-0.1,0.4,0,0.4-0.1,0.8
		c-0.1,0.4-0.1,0.4-0.2,0.8c-0.1,0.4-0.4,0.3-0.5,0.7c-0.1,0.4-0.5,0.6-0.2,0.9c0.3,0.3,0.4-0.4,0.8-0.5c0.4-0.1,0.4-0.1,0.8-0.2
		c0.4-0.1,0.5,0.2,0.9,0.1c0.4-0.1,0.4,0,0.8-0.1c0.4-0.1,0.3-0.3,0.7-0.4c0.4-0.1,0.4-0.1,0.8-0.3c0.4-0.1,0.3-0.4,0.7-0.5
		c0.4-0.1,0.4,0,0.8-0.1c0.4-0.1,0.5,0.1,0.9,0c0.4-0.1,0.3-0.4,0.7-0.5c0.4-0.1,0.5,0.1,0.9,0c0.4-0.1,0.3-0.5,0.7-0.6
		c0.4-0.1,0.4-0.1,0.8-0.2c0.4-0.1,0.5,0.2,0.9,0.1s0.4-0.2,0.8-0.3c0.4-0.1,0.4-0.2,0.8-0.3c0.4-0.1,0.4-0.2,0.8-0.3
		c0.4-0.1,0.4-0.3,0.7-0.4c0.4-0.1,0.5,0.2,0.9,0.1c0.4-0.1,0.4,0,0.8-0.1c0.4-0.1,0.3-0.4,0.7-0.5c0.4-0.1,0.4,0,0.8-0.1
		c0.4-0.1,0.4-0.6,0.6-0.3c0.2,0.4-0.1,0.2-0.4,0.5c-0.3,0.3-0.5,0.1-0.8,0.4c-0.3,0.3-0.1,0.5-0.4,0.8c-0.3,0.3-0.6,0-0.9,0.3
		c-0.3,0.3-0.1,0.5-0.4,0.8c-0.3,0.3-0.5,0.1-0.8,0.3c-0.3,0.3-0.1,0.5-0.4,0.8c-0.3,0.3-0.3,0.3-0.6,0.6c-0.3,0.3-0.5,0.1-0.8,0.3
		c-0.3,0.3-0.3,0.2-0.6,0.5c-0.3,0.3-0.1,0.5-0.4,0.7c-0.3,0.3-0.4,0.1-0.7,0.4c-0.3,0.3-0.1,0.5-0.4,0.7c-0.3,0.3-0.3,0.3-0.6,0.6
		s-0.6,0-0.9,0.3c-0.3,0.3,0,0.6-0.3,0.9c-0.3,0.3-0.4,0.2-0.7,0.5c-0.3,0.3-0.4,0.2-0.7,0.4c-0.3,0.3-0.2,0.4-0.5,0.7
		c-0.3,0.3-0.4,0.1-0.7,0.4c-0.3,0.3-0.1,0.5-0.5,0.7c-0.3,0.3-0.5,0.1-0.8,0.3s-0.4,0.2-0.3,0.6c0.1,0.4,0.2,0.2,0.6,0.3
		c0.4,0.1,0.4-0.1,0.8,0c0.4,0.1,0.4,0.1,0.8,0.1c0.4,0.1,0.4,0.2,0.8,0.3c0.4,0.1,0.5-0.1,0.9,0c0.4,0.1,0.4,0,0.8,0.1
		c0.4,0.1,0.4,0.2,0.8,0.3c0.4,0.1,0.3,0.4,0.7,0.5c0.4,0.1,0.5-0.2,0.9-0.1c0.4,0.1,0.3,0.4,0.7,0.5c0.4,0.1,0.5-0.3,0.9-0.2
		c0.4,0.1,0.3,0.5,0.7,0.6c0.4,0.1,0.5-0.1,0.9-0.1c0.4,0.1,0.4,0.3,0.8,0.4c0.4,0.1,0.4,0.1,0.8,0.2c0.4,0.1,0.4,0,0.8,0.1
		c0.4,0.1,0.4,0.2,0.8,0.3c0.4,0.1,0.4-0.1,0.9,0c0.4,0.1,0.4,0.3,0.8,0.4c0.4,0.1,0.5-0.3,0.9-0.2c0.4,0.1,0.4,0.1,0.8,0.2
		c0.4,0.1,0.3,0.5,0.7,0.5c0.4,0.1,0.7-0.5,0.7,0c0,0.4-0.2,0.3-0.6,0.4c-0.4,0.1-0.4,0-0.8,0.1c-0.4,0.1-0.4,0.1-0.8,0.2
		c-0.4,0.1-0.4,0.2-0.8,0.3c-0.4,0.1-0.5-0.4-0.9-0.3c-0.4,0.1-0.3,0.3-0.8,0.4c-0.4,0.1-0.4-0.1-0.8,0c-0.4,0.1-0.3,0.4-0.7,0.5
		c-0.4,0.1-0.4,0.1-0.8,0.2c-0.4,0.1-0.5-0.3-0.9-0.2c-0.4,0.1-0.4,0.3-0.8,0.4c-0.4,0.1-0.4,0-0.8,0c-0.4,0.1-0.3,0.4-0.7,0.5
		c-0.4,0.1-0.4-0.1-0.8,0c-0.4,0.1-0.5-0.2-0.9-0.1c-0.4,0.1-0.4,0.1-0.8,0.1c-0.4,0.1-0.3,0.4-0.7,0.5c-0.4,0.1-0.4,0-0.8,0.1
		c-0.4,0.1-0.4,0.1-0.8,0.2c-0.4,0.1-0.4,0.3-0.8,0.3c-0.4,0.1-0.4,0-0.8,0.1c-0.4,0.1-0.4,0-0.8,0c-0.4,0.1-0.8-0.2-0.9,0.2
		c-0.1,0.4,0.3,0.4,0.6,0.7c0.3,0.3,0.4,0.2,0.7,0.5c0.3,0.3,0.4,0.2,0.7,0.4c0.3,0.3,0.1,0.5,0.4,0.7c0.3,0.3,0.3,0.3,0.6,0.5
		c0.3,0.3,0.2,0.4,0.5,0.6c0.3,0.3,0.5,0,0.8,0.3c0.3,0.3,0.2,0.4,0.5,0.7c0.3,0.3,0.2,0.4,0.5,0.7c0.3,0.3,0.3,0.3,0.6,0.6
		c0.3,0.3,0.4,0.2,0.7,0.5c0.3,0.3,0.4,0.2,0.7,0.5c0.3,0.3,0.5,0.1,0.8,0.4c0.3,0.3,0.3,0.3,0.6,0.6c0.3,0.3,0,0.6,0.3,0.9
		c0.3,0.3,0.6,0,0.9,0.3c0.3,0.3,0.4,0.2,0.7,0.5c0.3,0.3,0.2,0.4,0.5,0.7c0.3,0.3,0.3,0.3,0.6,0.6c0.3,0.3,0.3,0.3,0.6,0.6
		c0.3,0.3,0.5,0.1,0.8,0.4c0.3,0.3,0.1,0.6,0.4,0.8s0.8,0,0.6,0.4c-0.2,0.4-0.3,0-0.7-0.1c-0.4-0.1-0.4-0.2-0.8-0.3
		c-0.4-0.1-0.3-0.3-0.7-0.4c-0.4-0.1-0.5,0.1-0.9,0c-0.4-0.1-0.3-0.5-0.7-0.6c-0.4-0.1-0.5,0.1-0.9,0c-0.4-0.1-0.4,0-0.8-0.1
		c-0.4-0.1-0.4-0.1-0.8-0.3c-0.4-0.1-0.3-0.5-0.7-0.7c-0.4-0.1-0.5,0.3-0.9,0.2c-0.4-0.1-0.3-0.5-0.7-0.6c-0.4-0.1-0.5,0.1-0.9,0
		c-0.4-0.1-0.4,0-0.8-0.2c-0.4-0.1-0.3-0.3-0.7-0.4s-0.5,0.1-0.9,0c-0.4-0.1-0.3-0.4-0.7-0.5c-0.4-0.1-0.4-0.2-0.8-0.3
		c-0.4-0.1-0.4-0.2-0.8-0.3c-0.4-0.1-0.5,0.2-0.9,0.1c-0.4-0.1-0.3-0.4-0.7-0.5c-0.4-0.1-0.5,0.2-0.9,0c-0.4-0.1-0.4-0.1-0.8-0.2
		s-0.3-0.6-0.6-0.3c-0.3,0.3-0.2,0.3-0.1,0.7c0.1,0.4,0.2,0.4,0.3,0.8c0.1,0.4,0.5,0.3,0.6,0.7c0.1,0.4-0.2,0.5-0.1,0.9
		c0.1,0.4,0.1,0.4,0.2,0.8c0.1,0.4,0.1,0.4,0.3,0.8c0.1,0.4,0.2,0.4,0.3,0.8c0.1,0.4,0.2,0.4,0.3,0.8c0.1,0.4,0.2,0.4,0.3,0.8
		c0.1,0.4,0.1,0.4,0.2,0.8c0.1,0.4,0.2,0.4,0.4,0.7c0.1,0.4-0.2,0.5-0.1,0.9c0.1,0.4,0.3,0.3,0.4,0.7c0.1,0.4,0,0.4,0.2,0.8
		c0.1,0.4,0.2,0.4,0.3,0.8c0.1,0.4,0.2,0.4,0.3,0.8c0.1,0.4-0.1,0.5,0,0.9c0.1,0.4,0.3,0.3,0.4,0.7c0.1,0.4,0.1,0.4,0.2,0.8
		c0.1,0.4,0.4,0.3,0.6,0.7c0.1,0.4,0,0.4,0.1,0.8c0.1,0.4,0,0.4,0.1,0.8c0.1,0.4,0.7,0.6,0.4,0.8c-0.4,0.2-0.2-0.4-0.4-0.7
		c-0.3-0.3-0.6,0-0.9-0.3c-0.3-0.3-0.3-0.3-0.5-0.6c-0.3-0.3-0.3-0.3-0.6-0.6c-0.3-0.3,0.1-0.6-0.2-0.9c-0.3-0.3-0.4-0.2-0.6-0.5
		c-0.3-0.3-0.5-0.1-0.8-0.4c-0.3-0.3-0.3-0.3-0.6-0.6c-0.3-0.3,0.1-0.6-0.2-0.9c-0.3-0.3-0.6,0-0.9-0.3c-0.3-0.3-0.1-0.4-0.4-0.7
		c-0.3-0.3-0.1-0.5-0.3-0.8c-0.3-0.3-0.5-0.1-0.8-0.4c-0.3-0.3-0.1-0.5-0.3-0.8c-0.3-0.3-0.3-0.2-0.6-0.6c-0.3-0.3-0.5-0.1-0.8-0.4
		c-0.3-0.3-0.1-0.5-0.4-0.8c-0.3-0.3-0.5-0.1-0.7-0.4c-0.3-0.3-0.3-0.3-0.6-0.6c-0.3-0.3-0.1-0.5-0.4-0.8c-0.3-0.3-0.3-0.3-0.6-0.6
		c-0.3-0.3-0.2-0.4-0.5-0.7s-0.2-0.5-0.6-0.4c-0.4,0.1-0.2,0.2-0.3,0.6c-0.1,0.4-0.2,0.4-0.3,0.8c-0.1,0.4-0.1,0.4-0.1,0.8
		c-0.1,0.4,0.2,0.5,0.1,0.9c-0.1,0.4-0.4,0.3-0.5,0.7c-0.1,0.4,0,0.4,0,0.8c-0.1,0.4-0.3,0.4-0.4,0.8c-0.1,0.4,0,0.4-0.1,0.8
		c-0.1,0.4,0,0.4-0.1,0.8c-0.1,0.4-0.2,0.4-0.3,0.8c-0.1,0.4-0.1,0.4-0.2,0.8c-0.1,0.4-0.1,0.4-0.2,0.8c-0.1,0.4,0.1,0.4,0,0.8
		c-0.1,0.4,0,0.4-0.1,0.8c-0.1,0.4-0.3,0.4-0.4,0.8c-0.1,0.4,0,0.4-0.1,0.8c-0.1,0.4,0.2,0.5,0.1,0.9c-0.1,0.4-0.4,0.3-0.5,0.7
		c-0.1,0.4,0.1,0.4,0,0.8c-0.1,0.4-0.3,0.3-0.4,0.8c-0.1,0.4,0.3,0.5,0.2,0.9c-0.1,0.4,0,0.4-0.1,0.8c-0.1,0.4,0,0.9-0.4,0.9
		c-0.4,0,0.1-0.6,0-1c-0.1-0.4-0.3-0.3-0.4-0.8c-0.1-0.4-0.2-0.4-0.3-0.8c-0.1-0.4,0.2-0.5,0.1-0.9c-0.1-0.4-0.1-0.4-0.2-0.8
		c-0.1-0.4-0.1-0.4-0.2-0.8c-0.1-0.4-0.1-0.4-0.2-0.8c-0.1-0.4,0.1-0.4,0-0.8c-0.1-0.4-0.1-0.4-0.2-0.8c-0.1-0.4-0.2-0.4-0.3-0.8
		c-0.1-0.4-0.2-0.4-0.3-0.8c-0.1-0.4,0.1-0.4,0-0.8c-0.1-0.4-0.5-0.3-0.5-0.7c-0.1-0.4-0.1-0.4-0.2-0.8s0.3-0.5,0.2-0.9
		c-0.1-0.4-0.3-0.4-0.4-0.8c-0.1-0.4,0-0.4,0-0.8c-0.1-0.4-0.2-0.4-0.3-0.8c-0.1-0.4,0.1-0.5,0-0.9c-0.1-0.4-0.5-0.3-0.6-0.7
		c-0.1-0.4-0.1-0.4-0.2-0.8c-0.1-0.4-0.1-0.4-0.1-0.8c-0.1-0.4,0.4-0.9,0-1c-0.4-0.1-0.4,0.3-0.7,0.6c-0.3,0.3-0.1,0.5-0.3,0.8
		c-0.3,0.3-0.5,0.1-0.8,0.4c-0.3,0.3-0.2,0.4-0.4,0.7c-0.3,0.3-0.1,0.4-0.4,0.7c-0.3,0.3-0.5,0.1-0.8,0.4c-0.3,0.3-0.3,0.3-0.6,0.6
		c-0.3,0.3-0.2,0.4-0.4,0.7c-0.3,0.3-0.3,0.3-0.6,0.6c-0.3,0.3-0.5,0.1-0.7,0.4c-0.3,0.3-0.1,0.5-0.4,0.8c-0.3,0.3-0.2,0.4-0.5,0.7
		c-0.3,0.3-0.4,0.2-0.7,0.5c-0.3,0.3-0.5,0.1-0.8,0.4c-0.3,0.3-0.2,0.4-0.5,0.7c-0.3,0.3-0.1,0.5-0.4,0.8c-0.3,0.3-0.2,0.3-0.5,0.6
		c-0.3,0.3-0.5,0.1-0.8,0.4c-0.3,0.3-0.3,0.3-0.6,0.6c-0.3,0.3-0.3,0.3-0.5,0.6c-0.3,0.3-0.4,0.2-0.7,0.5c-0.3,0.3,0,0.5-0.3,0.9
		s-0.3,0.8-0.7,0.6c-0.4-0.2,0.3-0.4,0.4-0.8c0.1-0.4-0.2-0.5,0-0.9c0.1-0.4,0.5-0.3,0.6-0.7c0.1-0.4,0-0.4,0.1-0.8
		c0.1-0.4,0-0.4,0.1-0.8c0.1-0.4,0.3-0.3,0.4-0.7c0.1-0.4-0.2-0.5,0-0.9c0.1-0.4,0.3-0.3,0.4-0.7c0.1-0.4-0.1-0.5,0-0.9
		c0.1-0.4,0-0.4,0.1-0.8c0.1-0.4,0.5-0.3,0.6-0.7c0.1-0.4,0.2-0.4,0.3-0.8c0.1-0.4-0.2-0.5-0.1-0.9c0.1-0.4,0.1-0.4,0.2-0.8
		c0.1-0.4,0.5-0.3,0.6-0.7c0.1-0.4,0.1-0.4,0.3-0.8c0.1-0.4-0.2-0.5,0-0.9c0.1-0.4,0.2-0.4,0.3-0.8c0.1-0.4,0.3-0.3,0.5-0.7
		c0.1-0.4,0.1-0.4,0.2-0.8c0.1-0.4-0.1-0.5,0-0.9c0.1-0.4,0.1-0.4,0.2-0.8c0.1-0.4,0.9-0.6,0.6-0.9c-0.3-0.3-0.6,0.1-1,0.2
		c-0.4,0.1-0.3,0.3-0.7,0.4c-0.4,0.1-0.5-0.1-0.9,0c-0.4,0.1-0.3,0.3-0.7,0.5c-0.4,0.1-0.4,0.2-0.8,0.4c-0.4,0.1-0.4,0.1-0.8,0.3
		c-0.4,0.1-0.4,0-0.8,0.2c-0.4,0.1-0.4,0.2-0.8,0.3c-0.4,0.1-0.5-0.1-0.9,0c-0.4,0.1-0.3,0.5-0.7,0.7c-0.4,0.1-0.4,0.1-0.8,0.2
		c-0.4,0.1-0.5-0.1-0.9,0c-0.4,0.1-0.3,0.4-0.7,0.6c-0.4,0.1-0.5-0.4-0.9-0.2c-0.4,0.1-0.4,0.2-0.8,0.3c-0.4,0.1-0.3,0.4-0.7,0.5
		c-0.4,0.1-0.5-0.1-0.9,0c-0.4,0.1-0.4,0.1-0.8,0.2c-0.4,0.1-0.3,0.4-0.7,0.5c-0.4,0.1-0.5-0.1-0.9,0c-0.4,0.1-0.3,0.3-0.7,0.4
		c-0.4,0.1-0.4,0-0.8,0.1c-0.4,0.1-0.4,0.6-0.6,0.3c-0.2-0.4,0-0.3,0.3-0.6c0.3-0.3,0.4-0.1,0.7-0.4c0.3-0.3,0.3-0.3,0.6-0.6
		c0.3-0.3,0.3-0.3,0.6-0.6c0.3-0.3,0.2-0.4,0.5-0.6c0.3-0.3,0.4-0.1,0.7-0.4c0.3-0.3,0.4-0.2,0.7-0.4c0.3-0.3,0.3-0.3,0.6-0.6
		c0.3-0.3,0.1-0.5,0.4-0.8c0.3-0.3,0.4-0.2,0.7-0.4c0.3-0.3,0.4-0.2,0.7-0.5c0.3-0.3,0.4-0.2,0.7-0.5c0.3-0.3,0.3-0.3,0.6-0.6
		c0.3-0.3,0.1-0.5,0.4-0.8c0.3-0.3,0.3-0.3,0.6-0.6c0.3-0.3,0.5-0.1,0.8-0.4c0.3-0.3,0.1-0.5,0.4-0.8c0.3-0.3,0.4-0.2,0.7-0.5
		c0.3-0.3,0.4-0.2,0.7-0.5c0.3-0.3,0.1-0.5,0.4-0.8c0.3-0.3,0.6,0,0.9-0.3c0.3-0.3,0.2-0.4,0.5-0.7c0.3-0.3,0.7-0.2,0.6-0.6
		c-0.1-0.4-0.4,0.1-0.8,0c-0.4-0.1-0.3-0.5-0.7-0.6c-0.4-0.1-0.4-0.1-0.8-0.2c-0.4-0.1-0.4,0-0.8-0.1c-0.4-0.1-0.5,0.1-0.9,0.1
		c-0.4-0.1-0.3-0.3-0.7-0.4c-0.4-0.1-0.5,0.3-0.9,0.2c-0.4-0.1-0.4-0.1-0.8-0.2c-0.4-0.1-0.4-0.2-0.8-0.3c-0.4-0.1-0.4-0.1-0.8-0.2
		c-0.4-0.1-0.4-0.1-0.8-0.2c-0.4-0.1-0.4-0.2-0.8-0.3c-0.4-0.1-0.4-0.3-0.8-0.4c-0.4-0.1-0.4-0.1-0.8-0.2s-0.4,0-0.8-0.1
		c-0.4-0.1-0.4,0-0.8-0.1c-0.4-0.1-0.4,0-0.8-0.1c-0.4-0.1-0.4,0.1-0.9,0c-0.4-0.1-0.4-0.2-0.8-0.3c-0.4-0.1-0.4,0.1-0.8,0
		c-0.4-0.1-0.3-0.4-0.7-0.5c-0.4-0.1-0.4,0.1-0.8,0s-1,0.2-1-0.3c0-0.4,0.7,0.2,1.1,0.1c0.4-0.1,0.4-0.1,0.8-0.2
		c0.4-0.1,0.4-0.3,0.8-0.4c0.4-0.1,0.4,0.1,0.8,0c0.4-0.1,0.4,0,0.8-0.1c0.4-0.1,0.4-0.2,0.8-0.3c0.4-0.1,0.4,0,0.8-0.1
		c0.4-0.1,0.4-0.2,0.8-0.3c0.4-0.1,0.3-0.4,0.7-0.4c0.4-0.1,0.4,0.1,0.8,0c0.4-0.1,0.4-0.1,0.8-0.2c0.4-0.1,0.4-0.1,0.8-0.2
		c0.4-0.1,0.4-0.2,0.8-0.3c0.4-0.1,0.4,0,0.8-0.1c0.4-0.1,0.4-0.1,0.8-0.2c0.4-0.1,0.5,0.3,0.9,0.2c0.4-0.1,0.3-0.4,0.7-0.5
		c0.4-0.1,0.4,0,0.8-0.1c0.4-0.1,0.4,0.1,0.8,0c0.4-0.1,0.4-0.2,0.8-0.3c0.4-0.1,0.4,0,0.8-0.1c0.4-0.1,0.4,0,0.8-0.1
		s0.5,0.1,0.6-0.3c0.1-0.4-0.2-0.1-0.5-0.4c-0.3-0.3-0.2-0.4-0.5-0.7c-0.3-0.3-0.5-0.1-0.8-0.4c-0.3-0.3-0.2-0.4-0.5-0.6
		c-0.3-0.3-0.1-0.5-0.4-0.8c-0.3-0.3-0.6,0-0.9-0.3c-0.3-0.3-0.2-0.4-0.5-0.7c-0.3-0.3-0.4-0.2-0.7-0.5c-0.3-0.3-0.1-0.5-0.4-0.7
		c-0.3-0.3-0.5,0-0.8-0.3c-0.3-0.3-0.2-0.4-0.5-0.7c-0.3-0.3-0.3-0.3-0.6-0.6c-0.3-0.3-0.4-0.2-0.7-0.5c-0.3-0.3-0.2-0.4-0.5-0.7
		c-0.3-0.3-0.3-0.3-0.6-0.6c-0.3-0.3-0.6,0-0.9-0.3c-0.3-0.3-0.3-0.2-0.6-0.5c-0.3-0.3,0-0.6-0.3-0.9c-0.3-0.3-0.6,0-0.9-0.3
		c-0.3-0.3-0.1-0.5-0.4-0.8c-0.3-0.3-0.5-0.1-0.8-0.4c-0.3-0.3-0.1-0.5-0.4-0.8c-0.3-0.3-0.9,0-0.7-0.4c0.2-0.4,0.4,0,0.8,0.1
		c0.4,0.1,0.3,0.4,0.7,0.5c0.4,0.1,0.5-0.2,0.9-0.1c0.4,0.1,0.4,0.2,0.8,0.3c0.4,0.1,0.4,0.1,0.8,0.2c0.4,0.1,0.3,0.4,0.7,0.5
		c0.4,0.1,0.4,0.1,0.8,0.2c0.4,0.1,0.4,0.1,0.8,0.2c0.4,0.1,0.4,0.1,0.8,0.2c0.4,0.1,0.4,0.2,0.8,0.3c0.4,0.1,0.4,0,0.8,0.1
		c0.4,0.1,0.3,0.3,0.7,0.4c0.4,0.1,0.4,0.1,0.8,0.3c0.4,0.1,0.5-0.3,0.9-0.1c0.4,0.1,0.3,0.3,0.7,0.4c0.4,0.1,0.3,0.3,0.7,0.4
		c0.4,0.1,0.5-0.2,0.9-0.1c0.4,0.1,0.3,0.5,0.7,0.6c0.4,0.1,0.4,0,0.8,0.1c0.4,0.1,0.4,0,0.8,0.1c0.4,0.1,0.3,0.4,0.7,0.5
		c0.4,0.1,0.4,0.1,0.8,0.3c0.4,0.1,0.7,0.4,1,0.1c0.3-0.3-0.1-0.5-0.2-0.9c-0.1-0.4-0.3-0.3-0.5-0.7c-0.1-0.4,0-0.4-0.1-0.8
		c-0.1-0.4-0.4-0.3-0.5-0.7c-0.1-0.4,0-0.4-0.2-0.8c-0.1-0.4,0.1-0.5,0-0.9c-0.1-0.4-0.3-0.4-0.4-0.7c-0.1-0.4,0.1-0.5,0-0.9
		c-0.1-0.4-0.2-0.4-0.3-0.8c-0.1-0.4-0.5-0.3-0.7-0.7c-0.1-0.4,0.1-0.5,0-0.9c-0.1-0.4-0.2-0.4-0.3-0.8c-0.1-0.4,0-0.4-0.1-0.8
		c-0.1-0.4-0.1-0.4-0.2-0.8c-0.1-0.4,0-0.4-0.1-0.8c-0.1-0.4-0.1-0.4-0.2-0.8c-0.1-0.4-0.5-0.3-0.6-0.7c-0.1-0.4,0-0.4-0.2-0.8
		c-0.1-0.4,0-0.4-0.1-0.8c-0.1-0.4-0.2-0.4-0.4-0.8c-0.1-0.4,0.2-0.5,0.1-0.9c-0.1-0.4-0.2-0.4-0.3-0.8c-0.1-0.4-0.9-0.7-0.5-0.9
		c0.4-0.2,0.3,0.6,0.6,0.9c0.3,0.3,0.2,0.4,0.5,0.7c0.3,0.3,0.4,0.2,0.6,0.5c0.3,0.3,0.1,0.4,0.4,0.7c0.3,0.3,0.4,0.2,0.7,0.5
		c0.3,0.3,0.2,0.3,0.5,0.6c0.3,0.3,0.3,0.3,0.5,0.6c0.3,0.3,0.5,0.1,0.8,0.4c0.3,0.3,0.1,0.4,0.4,0.7c0.3,0.3,0.3,0.3,0.6,0.6
		c0.3,0.3,0.2,0.3,0.5,0.7c0.3,0.3,0.4,0.1,0.7,0.5c0.3,0.3,0.1,0.5,0.4,0.8c0.3,0.3,0.5,0.1,0.7,0.5c0.3,0.3,0.3,0.2,0.6,0.5
		c0.3,0.3,0.3,0.2,0.6,0.6c0.3,0.3,0.2,0.4,0.4,0.7c0.3,0.3,0.1,0.5,0.4,0.8c0.3,0.3,0.4,0.2,0.7,0.5c0.3,0.3,0.1,0.4,0.4,0.7
		c0.3,0.3,0.3,0.3,0.5,0.6c0.3,0.3,0.7,0,0.9,0.4C427.3,60.2,427.1,60.7,427.5,60.6z"/>
</g>
<path class="st1" d="M477.2,103.8c0,9.8-7.9,17.7-17.7,17.7H53.4c-9.8,0-17.7-7.9-17.7-17.7V46.7c0-9.8,7.9-17.7,17.7-17.7h406.2
	c9.8,0,17.7,7.9,17.7,17.7V103.8z"/>
<g>
	<path class="st2" d="M76.3,35.5l8.3,31.2h0.1l7.9-31.2h11v45.3h-7.3V48.7h-0.1l-8.7,32.1h-6L72.7,49h-0.1v31.8h-7.3V35.5H76.3z"/>
	<path class="st2" d="M146.9,35.5l13.3,45.3H152l-2.7-10.1h-13.3l-2.8,10.1h-7.9l13.4-45.3H146.9z M147.3,63.3l-4.5-16.6h-0.1
		l-4.6,16.6H147.3z"/>
	<path class="st2" d="M187.9,69.7c0.4,1.1,1,1.9,1.7,2.6c0.7,0.7,1.6,1.1,2.5,1.5c1,0.3,2,0.5,3,0.5c0.7,0,1.4-0.1,2.2-0.2
		c0.8-0.1,1.5-0.4,2.2-0.9c0.7-0.4,1.3-1,1.7-1.7c0.5-0.7,0.7-1.7,0.7-2.8c0-1.2-0.3-2.2-0.9-3c-0.6-0.8-1.4-1.4-2.4-1.9
		c-1-0.5-2.1-1-3.4-1.3c-1.3-0.4-2.5-0.8-3.8-1.3c-1.3-0.4-2.6-0.9-3.9-1.6c-1.3-0.6-2.4-1.4-3.4-2.4c-1-1-1.8-2.2-2.4-3.6
		c-0.6-1.5-0.9-3.2-0.9-5.3c0-2.3,0.4-4.3,1.2-6.1c0.8-1.7,1.8-3.1,3.1-4.3c1.3-1.1,2.7-2,4.3-2.5c1.6-0.5,3.2-0.8,4.8-0.8
		c1.9,0,3.6,0.3,5.3,0.8c1.7,0.5,3.2,1.4,4.6,2.6c1.3,1.2,2.4,2.7,3.2,4.5c0.8,1.8,1.2,4.1,1.2,6.7h-7.6c-0.1-1.4-0.3-2.5-0.7-3.4
		c-0.4-0.9-0.9-1.6-1.5-2.1c-0.6-0.5-1.4-0.9-2.2-1.1c-0.8-0.2-1.7-0.3-2.7-0.3c-0.6,0-1.3,0.1-1.9,0.3c-0.6,0.2-1.2,0.5-1.7,0.9
		c-0.5,0.4-0.9,1-1.3,1.6c-0.3,0.6-0.5,1.4-0.5,2.4c0,0.9,0.1,1.6,0.4,2.2c0.3,0.6,0.8,1.1,1.6,1.5c0.8,0.5,1.9,0.9,3.2,1.4
		c1.4,0.5,3.2,1.1,5.4,1.8c0.7,0.2,1.6,0.5,2.8,0.9c1.2,0.4,2.3,1.2,3.5,2.1c1.2,1,2.2,2.3,3,3.9c0.8,1.6,1.3,3.7,1.3,6.3
		c0,2.1-0.3,4-0.9,5.8c-0.6,1.8-1.6,3.3-2.8,4.6c-1.2,1.3-2.8,2.3-4.6,3c-1.8,0.7-4,1.1-6.4,1.1c-2,0-3.9-0.3-5.7-0.9
		c-1.8-0.6-3.5-1.6-4.9-2.9c-1.4-1.3-2.5-3-3.4-5c-0.8-2-1.2-4.4-1.2-7.2h7.6C187.3,67.3,187.5,68.6,187.9,69.7z"/>
	<path class="st2" d="M230.2,43.9v-8.4h29.1v8.4h-10.6v36.9h-7.8V43.9H230.2z"/>
	<path class="st2" d="M308.7,35.5v8.4H290v9.7h17.2v7.7H290v11.1h19.2v8.4h-27V35.5H308.7z"/>
	<path class="st2" d="M352.3,35.5c1.6,0,3,0.3,4.3,1c1.3,0.7,2.4,1.6,3.3,2.7c0.9,1.1,1.6,2.5,2.1,4c0.5,1.5,0.7,3.1,0.7,4.9
		c0,2.7-0.4,5-1.3,6.9c-0.9,1.9-2.3,3.4-4.3,4.4v0.1c1,0.3,1.8,0.9,2.4,1.6c0.6,0.7,1.1,1.5,1.5,2.5c0.4,1,0.7,2,0.9,3.1
		c0.2,1.1,0.3,2.3,0.4,3.4c0,0.7,0.1,1.6,0.1,2.5c0,1,0.1,2,0.2,3c0.1,1,0.2,2,0.4,2.9c0.2,0.9,0.5,1.7,0.8,2.3h-7.8
		c-0.4-1.4-0.7-3.2-0.8-5.1c-0.1-2-0.2-3.9-0.4-5.7c-0.3-2.4-0.8-4.1-1.7-5.2c-0.9-1.1-2.3-1.7-4.2-1.7h-7.8v17.7h-7.8V35.5H352.3z
		 M349.5,56c1.8,0,3.1-0.5,4-1.5c0.9-1,1.3-2.7,1.3-5c0-2.2-0.4-3.8-1.3-4.8c-0.9-1-2.2-1.5-4-1.5h-8.6V56H349.5z"/>
	<path class="st2" d="M81.3,72.1c2.2,0,4.1,0.4,5.7,1.2c1.6,0.8,2.8,1.9,3.8,3.3c1,1.4,1.7,2.9,2.1,4.6c0.4,1.7,0.7,3.5,0.7,5.4
		c0,1.8-0.2,3.6-0.7,5.4c-0.4,1.8-1.2,3.3-2.1,4.7c-1,1.4-2.2,2.4-3.8,3.3c-1.6,0.8-3.5,1.2-5.7,1.2h-8.2v16.2h-7.8V72.1H81.3z
		 M79.2,93.5c0.9,0,1.8-0.1,2.6-0.3c0.8-0.2,1.6-0.5,2.2-1c0.6-0.5,1.1-1.2,1.5-2.1c0.4-0.9,0.6-2.1,0.6-3.5c0-1.4-0.2-2.6-0.6-3.5
		c-0.4-0.9-0.9-1.6-1.5-2.1c-0.6-0.5-1.4-0.8-2.2-1c-0.8-0.2-1.7-0.3-2.6-0.3h-6.1v13.6H79.2z"/>
	<path class="st2" d="M139.1,72.1v36.9h17.3v8.4h-25.1V72.1H139.1z"/>
	<path class="st2" d="M211.4,72.1l13.3,45.3h-8.1l-2.7-10.1h-13.3l-2.8,10.1h-7.9l13.4-45.3H211.4z M211.8,99.9l-4.5-16.6h-0.1
		l-4.6,16.6H211.8z"/>
	<path class="st2" d="M268.4,72.1l14.8,30.4h0.1V72.1h7.3v45.3h-7.8L268,87.1h-0.1v30.3h-7.3V72.1H268.4z"/>
	<path class="st2" d="M330,85.6c0.8-2.9,1.9-5.4,3.4-7.6c1.5-2.2,3.3-3.8,5.5-5.1c2.2-1.2,4.6-1.8,7.3-1.8c2.8,0,5.2,0.6,7.4,1.8
		c2.2,1.2,4,2.9,5.5,5.1c1.5,2.2,2.6,4.7,3.4,7.6c0.8,2.9,1.2,6,1.2,9.4c0,3.3-0.4,6.4-1.2,9.2c-0.8,2.9-1.9,5.3-3.4,7.5
		c-1.5,2.1-3.3,3.8-5.5,5c-2.2,1.2-4.6,1.8-7.4,1.8c-2.7,0-5.2-0.6-7.3-1.8c-2.2-1.2-4-2.9-5.5-5c-1.5-2.1-2.6-4.6-3.4-7.5
		c-0.8-2.9-1.2-5.9-1.2-9.2C328.8,91.6,329.2,88.5,330,85.6z M337.1,100.5c0.3,1.8,0.9,3.4,1.7,4.9c0.8,1.4,1.8,2.6,3,3.5
		c1.2,0.9,2.7,1.3,4.5,1.3c1.8,0,3.3-0.4,4.5-1.3c1.2-0.9,2.2-2,3-3.5c0.8-1.4,1.3-3.1,1.7-4.9c0.3-1.8,0.5-3.6,0.5-5.6
		c0-2-0.2-3.9-0.5-5.8c-0.3-1.9-0.9-3.5-1.7-5c-0.8-1.5-1.8-2.6-3-3.5c-1.2-0.9-2.7-1.3-4.5-1.3c-1.8,0-3.3,0.4-4.5,1.3
		c-1.2,0.9-2.2,2-3,3.5c-0.8,1.5-1.3,3.1-1.7,5c-0.3,1.9-0.5,3.8-0.5,5.8C336.6,96.9,336.8,98.7,337.1,100.5z"/>
</g>
<g>
	<path class="st1" d="M419,60.2c0.4-0.1,0.2-0.2,0.3-0.6c0.1-0.4,0.1-0.4,0.2-0.8c0.1-0.4,0.1-0.4,0.1-0.8c0.1-0.4-0.2-0.5-0.1-0.9
		c0.1-0.4,0.1-0.4,0.2-0.8c0.1-0.4,0.3-0.4,0.4-0.8c0.1-0.4,0.2-0.4,0.3-0.8c0.1-0.4-0.2-0.5-0.1-0.9c0.1-0.4,0.1-0.4,0.2-0.8
		c0.1-0.4,0.1-0.4,0.2-0.8c0.1-0.4,0.1-0.4,0.2-0.8c0.1-0.4,0.2-0.4,0.3-0.8c0.1-0.4,0.2-0.4,0.3-0.8c0.1-0.4-0.3-0.5-0.2-0.9
		c0.1-0.4,0.2-0.4,0.3-0.8c0.1-0.4,0.3-0.4,0.3-0.8c0.1-0.4,0.2-0.4,0.2-0.8c0.1-0.4-0.1-0.4,0-0.8c0.1-0.4,0.1-0.4,0.2-0.8
		c0.1-0.4,0.4-0.3,0.4-0.8c0.1-0.4-0.3-0.5-0.2-0.9c0.1-0.4,0.3-0.4,0.4-0.8s-0.3-0.6,0.1-0.6c0.4,0,0.2,0.2,0.3,0.6
		c0.1,0.4,0,0.4,0.1,0.8c0.1,0.4,0,0.4,0.1,0.8c0.1,0.4,0.1,0.4,0.2,0.8c0.1,0.4,0.2,0.4,0.3,0.8c0.1,0.4,0,0.4,0.1,0.8
		c0.1,0.4,0.1,0.4,0.2,0.8c0.1,0.4,0,0.4,0.1,0.8c0.1,0.4,0.4,0.3,0.5,0.7c0.1,0.4-0.2,0.5-0.1,0.9c0.1,0.4,0.2,0.4,0.3,0.8
		c0.1,0.4,0.1,0.4,0.2,0.8c0.1,0.4,0.2,0.4,0.3,0.8c0.1,0.4-0.1,0.4,0,0.8c0.1,0.4,0.3,0.3,0.4,0.8c0.1,0.4-0.1,0.4,0,0.8
		c0.1,0.4,0.4,0.3,0.5,0.7c0.1,0.4-0.1,0.5-0.1,0.9c0.1,0.4,0,0.4,0,0.8c0.1,0.4,0.4,0.3,0.5,0.7c0.1,0.4-0.3,0.5-0.2,0.9
		c0.1,0.4,0.2,0.4,0.3,0.8c0.1,0.4-0.2,0.9,0.2,1c0.4,0.1,0.5-0.3,0.8-0.6c0.3-0.3,0-0.5,0.3-0.8c0.3-0.3,0.3-0.3,0.5-0.6
		c0.3-0.3,0.2-0.4,0.5-0.7c0.3-0.3,0.5-0.1,0.7-0.4c0.3-0.3,0.2-0.4,0.5-0.7c0.3-0.3,0.3-0.3,0.6-0.6c0.3-0.3,0.1-0.4,0.4-0.7
		c0.3-0.3,0.5-0.1,0.8-0.4c0.3-0.3,0.3-0.3,0.6-0.6c0.3-0.3,0.2-0.4,0.5-0.7c0.3-0.3,0.3-0.3,0.5-0.6c0.3-0.3,0.1-0.4,0.4-0.8
		c0.3-0.3,0.3-0.3,0.6-0.6c0.3-0.3,0.6-0.1,0.8-0.4c0.3-0.3,0.1-0.5,0.4-0.8c0.3-0.3,0.1-0.4,0.4-0.7c0.3-0.3,0.4-0.2,0.7-0.5
		c0.3-0.3,0.4-0.2,0.6-0.5c0.3-0.3,0.3-0.3,0.6-0.6c0.3-0.3,0.3-0.3,0.6-0.6c0.3-0.3,0.1-0.5,0.3-0.8s0.2-0.6,0.6-0.4
		c0.4,0.2-0.2,0.3-0.4,0.6c-0.1,0.4,0.1,0.5-0.1,0.8c-0.1,0.4-0.4,0.3-0.5,0.7c-0.1,0.4-0.1,0.4-0.2,0.8c-0.1,0.4-0.1,0.4-0.2,0.8
		c-0.1,0.4,0.2,0.5,0.1,0.9c-0.1,0.4-0.4,0.3-0.5,0.7c-0.1,0.4-0.1,0.4-0.2,0.8c-0.1,0.4-0.1,0.4-0.2,0.8c-0.1,0.4-0.3,0.3-0.5,0.7
		c-0.1,0.4,0.1,0.5,0,0.9c-0.1,0.4-0.4,0.3-0.5,0.7c-0.1,0.4,0.3,0.5,0.2,0.9c-0.1,0.4-0.3,0.3-0.5,0.7c-0.1,0.4,0,0.4-0.2,0.8
		c-0.1,0.4-0.2,0.4-0.3,0.8c-0.1,0.4-0.3,0.3-0.4,0.7c-0.1,0.4-0.1,0.4-0.2,0.8c-0.1,0.4,0,0.4-0.1,0.8c-0.1,0.4-0.2,0.4-0.3,0.8
		c-0.1,0.4-0.2,0.4-0.3,0.8c-0.1,0.4-0.3,0.3-0.4,0.7c-0.1,0.4-0.3,0.6,0,0.9c0.3,0.3,0.4-0.2,0.8-0.3c0.4-0.1,0.4-0.1,0.8-0.2
		c0.4-0.1,0.4-0.2,0.8-0.3c0.4-0.1,0.4-0.1,0.8-0.2c0.4-0.1,0.4-0.3,0.7-0.4c0.4-0.1,0.4-0.1,0.8-0.3c0.4-0.1,0.4,0,0.8-0.1
		c0.4-0.1,0.5,0.1,0.9,0c0.4-0.1,0.3-0.3,0.7-0.4c0.4-0.1,0.3-0.3,0.7-0.4c0.4-0.1,0.4-0.1,0.8-0.2c0.4-0.1,0.5,0.2,0.9,0.1
		c0.4-0.1,0.3-0.4,0.7-0.5c0.4-0.1,0.5,0.1,0.9,0c0.4-0.1,0.4-0.1,0.8-0.2c0.4-0.1,0.3-0.6,0.7-0.7c0.4-0.1,0.4-0.1,0.8-0.2
		c0.4-0.1,0.5,0.2,0.9,0.1c0.4-0.1,0.3-0.4,0.7-0.5c0.4-0.1,0.5,0.2,0.9,0.1c0.4-0.1,0.4-0.2,0.8-0.3c0.4-0.1,0.4-0.2,0.8-0.3
		s0.4-0.6,0.6-0.3c0.2,0.4-0.2,0.2-0.5,0.4c-0.3,0.3-0.2,0.4-0.5,0.7c-0.3,0.3-0.5,0.1-0.8,0.3c-0.3,0.3-0.1,0.5-0.4,0.8
		c-0.3,0.3-0.4,0.1-0.7,0.4c-0.3,0.3-0.1,0.5-0.4,0.7c-0.3,0.3-0.5,0.1-0.8,0.4c-0.3,0.3-0.3,0.2-0.6,0.5c-0.3,0.3-0.4,0.2-0.7,0.5
		c-0.3,0.3-0.2,0.4-0.5,0.6c-0.3,0.3-0.2,0.4-0.5,0.7c-0.3,0.3-0.4,0.2-0.7,0.4c-0.3,0.3-0.3,0.3-0.6,0.6c-0.3,0.3-0.3,0.3-0.6,0.6
		c-0.3,0.3-0.4,0.1-0.7,0.4c-0.3,0.3-0.2,0.4-0.5,0.6c-0.3,0.3-0.3,0.3-0.6,0.6c-0.3,0.3-0.3,0.3-0.6,0.6c-0.3,0.3-0.2,0.4-0.5,0.6
		c-0.3,0.3-0.5,0.1-0.8,0.4c-0.3,0.3-0.1,0.5-0.4,0.8c-0.3,0.3-0.3,0.3-0.6,0.6c-0.3,0.3-0.8,0-0.7,0.4c0.1,0.4,0.3,0.2,0.8,0.2
		c0.4,0.1,0.4,0.1,0.8,0.2c0.4,0.1,0.4,0.1,0.8,0.2c0.4,0.1,0.4,0,0.8,0.1c0.4,0.1,0.4,0,0.8,0.1c0.4,0.1,0.4,0.3,0.8,0.4
		c0.4,0.1,0.4,0.1,0.8,0.2c0.4,0.1,0.4,0.2,0.8,0.3c0.4,0.1,0.4,0.2,0.8,0.3c0.4,0.1,0.4,0,0.8,0.1c0.4,0.1,0.5-0.2,0.9-0.1
		c0.4,0.1,0.3,0.4,0.7,0.5c0.4,0.1,0.4,0.1,0.8,0.2c0.4,0.1,0.5-0.3,0.9-0.2c0.4,0.1,0.4,0.1,0.8,0.2c0.4,0.1,0.4,0,0.8,0.1
		c0.4,0.1,0.4,0.3,0.8,0.4c0.4,0.1,0.4-0.1,0.8,0c0.4,0.1,0.4,0.1,0.8,0.2c0.4,0.1,0.4,0.3,0.8,0.4c0.4,0.1,0.4,0.2,0.8,0.3
		c0.4,0.1,0.4,0.1,0.8,0.2c0.4,0.1,0.9-0.4,0.9,0c0,0.4-0.5-0.1-0.9,0c-0.4,0.1-0.4,0.1-0.8,0.2c-0.4,0.1-0.3,0.6-0.7,0.7
		c-0.4,0.1-0.5-0.4-0.9-0.3c-0.4,0.1-0.3,0.5-0.7,0.6c-0.4,0.1-0.4,0-0.8,0.1c-0.4,0.1-0.5-0.2-0.9-0.2c-0.4,0.1-0.4,0.2-0.8,0.3
		c-0.4,0.1-0.4,0.1-0.8,0.2c-0.4,0.1-0.4-0.1-0.8,0c-0.4,0.1-0.4,0.1-0.8,0.2c-0.4,0.1-0.3,0.4-0.7,0.4c-0.4,0.1-0.4,0.2-0.8,0.3
		c-0.4,0.1-0.5-0.1-0.9,0c-0.4,0.1-0.4,0.2-0.8,0.3c-0.4,0.1-0.4,0.2-0.8,0.3c-0.4,0.1-0.5-0.2-0.9-0.1c-0.4,0.1-0.4,0-0.8,0.1
		c-0.4,0.1-0.3,0.5-0.7,0.6c-0.4,0.1-0.5-0.3-0.9-0.2c-0.4,0.1-0.4,0.1-0.8,0.2c-0.4,0.1-0.4,0.2-0.8,0.3c-0.4,0.1-0.6-0.3-0.7,0.1
		c-0.1,0.4,0.1,0.4,0.4,0.6c0.3,0.3,0.5,0.1,0.8,0.3c0.3,0.3,0.2,0.4,0.5,0.7c0.3,0.3,0.5,0.1,0.8,0.4c0.3,0.3,0.3,0.3,0.6,0.6
		c0.3,0.3,0.2,0.3,0.5,0.6c0.3,0.3,0.2,0.4,0.5,0.7c0.3,0.3,0.3,0.2,0.6,0.5c0.3,0.3,0.5,0.1,0.8,0.4c0.3,0.3,0.3,0.3,0.6,0.6
		c0.3,0.3,0.1,0.5,0.4,0.8c0.3,0.3,0.6,0,0.9,0.3c0.3,0.3,0,0.6,0.3,0.9c0.3,0.3,0.4,0.2,0.7,0.5s0.3,0.3,0.6,0.6
		c0.3,0.3,0.6,0,0.9,0.3c0.3,0.3,0.3,0.3,0.6,0.6c0.3,0.3,0.4,0.2,0.7,0.5c0.3,0.3,0,0.6,0.3,0.9c0.3,0.3,0.3,0.3,0.6,0.6
		c0.3,0.3,0.5,0,0.8,0.3c0.3,0.3,0.2,0.4,0.5,0.7s0.7,0.1,0.5,0.4c-0.2,0.4-0.3,0-0.7-0.1c-0.4-0.1-0.3-0.4-0.7-0.5
		c-0.4-0.1-0.4-0.1-0.8-0.2c-0.4-0.1-0.5,0.2-0.9,0.1c-0.4-0.1-0.4-0.2-0.8-0.4c-0.4-0.1-0.4,0-0.8-0.1c-0.4-0.1-0.3-0.4-0.7-0.6
		c-0.4-0.1-0.5,0.1-0.8,0c-0.4-0.1-0.4-0.1-0.8-0.2c-0.4-0.1-0.4-0.2-0.7-0.4c-0.4-0.1-0.3-0.3-0.7-0.5c-0.4-0.1-0.4,0-0.8-0.2
		c-0.4-0.1-0.4-0.1-0.8-0.2c-0.4-0.1-0.4,0-0.8-0.1s-0.4-0.3-0.7-0.4c-0.4-0.1-0.4-0.3-0.7-0.4c-0.4-0.1-0.5,0.3-0.9,0.2
		c-0.4-0.1-0.3-0.5-0.7-0.6c-0.4-0.1-0.4-0.2-0.8-0.3c-0.4-0.1-0.4-0.2-0.8-0.3c-0.4-0.1-0.4,0-0.8-0.2c-0.4-0.1-0.5,0.1-0.9,0
		s-0.6-0.8-0.9-0.5c-0.3,0.3,0.1,0.6,0.2,1c0.1,0.4,0.3,0.3,0.4,0.7c0.1,0.4,0,0.4,0.2,0.8c0.1,0.4,0.2,0.4,0.3,0.8
		c0.1,0.4,0.1,0.4,0.3,0.8c0.1,0.4,0.1,0.4,0.2,0.8c0.1,0.4,0.4,0.3,0.5,0.7c0.1,0.4,0,0.4,0.1,0.8c0.1,0.4,0.3,0.4,0.4,0.7
		c0.1,0.4,0,0.4,0.1,0.8c0.1,0.4,0.2,0.4,0.3,0.8c0.1,0.4,0,0.4,0.1,0.8c0.1,0.4,0,0.4,0.2,0.8c0.1,0.4,0.3,0.3,0.5,0.7
		c0.1,0.4,0.1,0.4,0.2,0.8c0.1,0.4-0.1,0.5,0,0.9c0.1,0.4,0.3,0.3,0.4,0.7c0.1,0.4,0.3,0.4,0.4,0.7c0.1,0.4,0,0.4,0.1,0.8
		c0.1,0.4,0.1,0.4,0.2,0.8c0.1,0.4,0.1,0.4,0.2,0.8c0.1,0.4,0.2,0.4,0.3,0.8c0.1,0.4,0.7,0.8,0.3,1c-0.4,0.2-0.5-0.4-0.8-0.7
		c-0.3-0.3-0.3-0.3-0.6-0.6c-0.3-0.3-0.1-0.5-0.4-0.8c-0.3-0.3-0.5-0.1-0.8-0.4c-0.3-0.3-0.1-0.5-0.4-0.8c-0.3-0.3-0.5-0.1-0.8-0.4
		c-0.3-0.3-0.1-0.5-0.4-0.8c-0.3-0.3-0.5-0.1-0.8-0.4c-0.3-0.3,0-0.5-0.3-0.9c-0.3-0.3-0.3-0.3-0.6-0.6c-0.3-0.3-0.4-0.2-0.7-0.5
		c-0.3-0.3-0.3-0.3-0.6-0.6c-0.3-0.3-0.2-0.3-0.5-0.6c-0.3-0.3-0.2-0.4-0.5-0.7c-0.3-0.3-0.2-0.4-0.5-0.7c-0.3-0.3-0.6,0-0.9-0.3
		c-0.3-0.3-0.1-0.5-0.3-0.8c-0.3-0.3-0.4-0.2-0.7-0.5c-0.3-0.3-0.1-0.5-0.3-0.8c-0.3-0.3-0.4-0.2-0.7-0.5c-0.3-0.3-0.3-0.3-0.5-0.6
		c-0.3-0.3-0.2-0.3-0.5-0.7s-0.2-0.6-0.6-0.5c-0.4,0.1,0,0.4-0.1,0.8c-0.1,0.4-0.2,0.4-0.3,0.8c-0.1,0.4-0.3,0.4-0.4,0.8
		c-0.1,0.4,0.3,0.5,0.2,0.9c-0.1,0.4-0.2,0.4-0.3,0.8c-0.1,0.4-0.1,0.4-0.2,0.8c-0.1,0.4-0.1,0.4-0.2,0.8c-0.1,0.4-0.3,0.4-0.4,0.8
		c-0.1,0.4-0.1,0.4-0.2,0.8c-0.1,0.4-0.1,0.4-0.2,0.8c-0.1,0.4,0.3,0.5,0.2,0.9c-0.1,0.4-0.4,0.3-0.5,0.7c-0.1,0.4,0,0.4-0.1,0.8
		c-0.1,0.4,0,0.4-0.1,0.8c-0.1,0.4-0.3,0.4-0.3,0.8c-0.1,0.4-0.1,0.4-0.1,0.8c-0.1,0.4,0,0.4-0.1,0.8c-0.1,0.4-0.3,0.4-0.4,0.8
		c-0.1,0.4,0,0.4-0.1,0.8c-0.1,0.4-0.1,0.4-0.2,0.8c-0.1,0.4,0,0.4-0.1,0.8c-0.1,0.4-0.2,0.4-0.3,0.8s0.4,0.7-0.1,0.7
		c-0.4,0-0.1-0.2-0.2-0.6c-0.1-0.4-0.3-0.4-0.4-0.8c-0.1-0.4,0-0.4-0.1-0.8c-0.1-0.4-0.1-0.4-0.2-0.8c-0.1-0.4,0.2-0.5,0.1-0.9
		c-0.1-0.4-0.1-0.4-0.2-0.8c-0.1-0.4,0.1-0.4,0-0.8c-0.1-0.4-0.5-0.3-0.6-0.7c-0.1-0.4,0.2-0.5,0.1-0.9c-0.1-0.4-0.4-0.3-0.5-0.7
		c-0.1-0.4,0.1-0.5,0-0.9c-0.1-0.4-0.1-0.4-0.1-0.8c-0.1-0.4-0.4-0.3-0.4-0.7c-0.1-0.4,0-0.4-0.1-0.8c-0.1-0.4,0.2-0.5,0.1-0.9
		c-0.1-0.4-0.4-0.3-0.5-0.7c-0.1-0.4-0.1-0.4-0.2-0.8c-0.1-0.4,0.2-0.5,0.1-0.9c-0.1-0.4-0.3-0.4-0.3-0.8c-0.1-0.4,0-0.4-0.1-0.8
		c-0.1-0.4-0.3-0.4-0.4-0.8c-0.1-0.4,0.2-0.5,0.1-0.9s0-0.4-0.4-0.5c-0.4-0.1-0.4-0.1-0.7,0.2c-0.3,0.3-0.3,0.3-0.5,0.6
		c-0.3,0.3,0,0.6-0.3,0.9c-0.3,0.3-0.3,0.3-0.5,0.6c-0.3,0.3-0.3,0.3-0.6,0.6c-0.3,0.3-0.2,0.4-0.5,0.7c-0.3,0.3-0.6,0-0.9,0.3
		c-0.3,0.3-0.2,0.4-0.5,0.7c-0.3,0.3-0.4,0.2-0.7,0.5c-0.3,0.3-0.2,0.4-0.5,0.7c-0.3,0.3-0.4,0.2-0.7,0.5c-0.3,0.3,0.1,0.6-0.2,0.9
		c-0.3,0.3-0.4,0.2-0.7,0.5c-0.3,0.3-0.3,0.3-0.6,0.6c-0.3,0.3-0.4,0.2-0.6,0.5c-0.3,0.3-0.1,0.4-0.4,0.8c-0.3,0.3-0.6,0-0.9,0.3
		c-0.3,0.3,0.1,0.6-0.2,0.9c-0.3,0.3-0.6,0-0.9,0.3c-0.3,0.3,0,0.6-0.3,0.9c-0.3,0.3-0.4,0.2-0.7,0.5c-0.3,0.3-0.4,0.2-0.7,0.5
		s-0.2,1.1-0.5,0.9c-0.4-0.2,0.4-0.5,0.5-0.9c0.1-0.4-0.2-0.5,0-0.9c0.1-0.4,0.2-0.4,0.3-0.8c0.1-0.4,0.1-0.4,0.2-0.8
		c0.1-0.4,0.5-0.3,0.6-0.7c0.1-0.4,0.1-0.4,0.3-0.8c0.1-0.4-0.1-0.5,0-0.9c0.1-0.4-0.1-0.4,0.1-0.8c0.1-0.4,0.3-0.4,0.4-0.7
		c0.1-0.4,0.3-0.4,0.4-0.7c0.1-0.4-0.1-0.5,0-0.9c0.1-0.4,0.1-0.4,0.3-0.8c0.1-0.4,0.1-0.4,0.3-0.8c0.1-0.4,0.1-0.4,0.3-0.8
		c0.1-0.4,0.2-0.4,0.3-0.8c0.1-0.4,0.4-0.3,0.5-0.7c0.1-0.4-0.1-0.5,0.1-0.8c0.1-0.4-0.1-0.5,0.1-0.8c0.1-0.4,0.2-0.4,0.3-0.8
		c0.1-0.4,0.3-0.3,0.5-0.7c0.1-0.4,0-0.4,0.2-0.8c0.1-0.4,0-0.4,0.1-0.8c0.1-0.4,0.7-0.5,0.4-0.8c-0.3-0.3-0.4,0.4-0.7,0.5
		c-0.4,0.1-0.5-0.1-0.8,0.1c-0.4,0.1-0.5-0.1-0.9,0c-0.4,0.1-0.4,0.1-0.8,0.2c-0.4,0.1-0.3,0.4-0.7,0.5c-0.4,0.1-0.4,0.3-0.7,0.4
		c-0.4,0.1-0.5-0.3-0.9-0.1c-0.4,0.1-0.4,0.1-0.8,0.2c-0.4,0.1-0.4,0.2-0.8,0.3c-0.4,0.1-0.4,0.1-0.8,0.3c-0.4,0.1-0.4,0.1-0.8,0.2
		c-0.4,0.1-0.4,0.1-0.8,0.2c-0.4,0.1-0.4,0.2-0.8,0.3c-0.4,0.1-0.3,0.5-0.7,0.6c-0.4,0.1-0.4,0-0.8,0.2c-0.4,0.1-0.5-0.1-0.9,0
		c-0.4,0.1-0.4,0-0.8,0.1c-0.4,0.1-0.3,0.4-0.7,0.6c-0.4,0.1-0.4,0.2-0.8,0.3c-0.4,0.1-0.5-0.3-0.9-0.2c-0.4,0.1-0.3,0.5-0.7,0.6
		c-0.4,0.1-0.4,0-0.8,0.2c-0.4,0.1-0.6,0.5-0.8,0.1c-0.2-0.4,0.3-0.3,0.6-0.6c0.3-0.3,0.4-0.1,0.7-0.4c0.3-0.3,0.1-0.5,0.4-0.8
		c0.3-0.3,0.3-0.2,0.6-0.5c0.3-0.3,0.4-0.2,0.7-0.5c0.3-0.3,0.3-0.3,0.6-0.6c0.3-0.3,0.2-0.4,0.5-0.7c0.3-0.3,0.4-0.1,0.7-0.4
		c0.3-0.3,0.2-0.4,0.5-0.7c0.3-0.3,0.5-0.1,0.8-0.4c0.3-0.3,0.1-0.5,0.4-0.8c0.3-0.3,0.5,0,0.8-0.3c0.3-0.3,0.3-0.3,0.6-0.6
		c0.3-0.3,0.4-0.2,0.7-0.5c0.3-0.3,0.3-0.3,0.6-0.6c0.3-0.3,0.1-0.5,0.4-0.8c0.3-0.3,0.3-0.3,0.6-0.6c0.3-0.3,0.6,0.1,0.9-0.2
		c0.3-0.3,0.1-0.5,0.4-0.7c0.3-0.3,0.2-0.4,0.5-0.7c0.3-0.3,0.6,0,0.9-0.3c0.3-0.3,0.1-0.5,0.4-0.8c0.3-0.3,0.7,0,0.6-0.5
		c-0.1-0.4-0.3,0-0.7,0c-0.4-0.1-0.4,0-0.8-0.1c-0.4-0.1-0.3-0.5-0.7-0.6c-0.4-0.1-0.4,0.1-0.8,0c-0.4-0.1-0.4,0.1-0.8,0
		c-0.4-0.1-0.4-0.1-0.8-0.1c-0.4-0.1-0.3-0.3-0.7-0.4c-0.4-0.1-0.4-0.1-0.8-0.2c-0.4-0.1-0.4-0.1-0.8-0.2c-0.4-0.1-0.4-0.1-0.8-0.2
		c-0.4-0.1-0.4-0.2-0.8-0.3c-0.4-0.1-0.5,0.1-0.9,0c-0.4-0.1-0.4,0.1-0.9,0c-0.4-0.1-0.4-0.1-0.8-0.1s-0.4-0.3-0.8-0.4
		c-0.4-0.1-0.4-0.2-0.8-0.3c-0.4-0.1-0.4,0.1-0.9,0c-0.4-0.1-0.4-0.2-0.8-0.3c-0.4-0.1-0.5,0.1-0.9,0c-0.4-0.1-0.4-0.3-0.8-0.4
		c-0.4-0.1-0.4-0.2-0.8-0.3c-0.4-0.1-0.4,0.1-0.9,0c-0.4-0.1-0.8,0.1-0.8-0.3c0-0.4,0.4,0.1,0.8,0c0.4-0.1,0.4-0.3,0.8-0.4
		c0.4-0.1,0.4,0,0.8,0c0.4-0.1,0.3-0.4,0.7-0.5c0.4-0.1,0.5,0.1,0.9,0c0.4-0.1,0.4,0.1,0.8,0c0.4-0.1,0.4-0.1,0.8-0.2
		c0.4-0.1,0.4-0.3,0.8-0.4c0.4-0.1,0.4,0,0.8-0.1c0.4-0.1,0.4-0.1,0.8-0.2c0.4-0.1,0.4-0.1,0.8-0.1c0.4-0.1,0.3-0.4,0.7-0.5
		c0.4-0.1,0.5,0.2,0.9,0.1c0.4-0.1,0.4-0.2,0.8-0.3c0.4-0.1,0.4,0,0.8-0.1c0.4-0.1,0.4-0.2,0.8-0.2c0.4-0.1,0.4-0.2,0.8-0.3
		c0.4-0.1,0.5,0.1,0.9,0c0.4-0.1,0.4-0.2,0.8-0.3c0.4-0.1,0.5,0.2,0.9,0.1c0.4-0.1,0.4-0.2,0.8-0.3c0.4-0.1,0.4-0.3,0.8-0.4
		c0.4-0.1,0.6,0.3,0.7-0.1c0.1-0.4-0.3-0.1-0.6-0.4c-0.3-0.3-0.2-0.4-0.5-0.6c-0.3-0.3-0.4-0.1-0.7-0.4c-0.3-0.3-0.1-0.5-0.4-0.8
		c-0.3-0.3-0.4-0.1-0.7-0.4c-0.3-0.3-0.2-0.4-0.5-0.7c-0.3-0.3-0.3-0.2-0.6-0.5c-0.3-0.3-0.4-0.2-0.7-0.5c-0.3-0.3-0.4-0.2-0.7-0.5
		c-0.3-0.3-0.2-0.4-0.5-0.7c-0.3-0.3-0.3-0.3-0.6-0.6c-0.3-0.3-0.4-0.2-0.7-0.5c-0.3-0.3-0.1-0.5-0.4-0.8c-0.3-0.3-0.4-0.2-0.7-0.5
		c-0.3-0.3-0.3-0.3-0.6-0.5c-0.3-0.3-0.5-0.1-0.8-0.4c-0.3-0.3-0.1-0.5-0.4-0.8c-0.3-0.3-0.4-0.2-0.7-0.5c-0.3-0.3-0.3-0.2-0.6-0.5
		c-0.3-0.3-0.4-0.2-0.7-0.5c-0.3-0.3,0-0.6-0.3-0.9c-0.3-0.3-0.5-0.1-0.8-0.4s-0.7-0.1-0.5-0.5c0.2-0.4,0.3-0.2,0.7-0.1
		c0.4,0.1,0.3,0.3,0.7,0.4c0.4,0.1,0.4,0.2,0.8,0.3c0.4,0.1,0.4,0.2,0.8,0.3c0.4,0.1,0.3,0.3,0.7,0.5c0.4,0.1,0.4,0,0.8,0.1
		c0.4,0.1,0.4,0,0.8,0.1c0.4,0.1,0.4,0.1,0.8,0.2c0.4,0.1,0.5-0.1,0.8,0.1c0.4,0.1,0.4,0.2,0.8,0.3c0.4,0.1,0.4,0.3,0.7,0.4
		c0.4,0.1,0.4,0.2,0.8,0.4c0.4,0.1,0.4,0,0.8,0.1c0.4,0.1,0.3,0.3,0.7,0.4s0.4,0.2,0.8,0.3c0.4,0.1,0.5-0.1,0.9,0.1
		c0.4,0.1,0.4,0.1,0.8,0.2c0.4,0.1,0.3,0.3,0.7,0.4c0.4,0.1,0.5-0.2,0.9-0.1c0.4,0.1,0.3,0.4,0.7,0.5c0.4,0.1,0.4,0.1,0.8,0.2
		c0.4,0.1,0.5-0.2,0.9,0c0.4,0.1,0.3,0.6,0.6,0.3c0.3-0.3,0.3-0.3,0.1-0.7c-0.1-0.4-0.3-0.3-0.4-0.7c-0.1-0.4-0.3-0.4-0.4-0.7
		c-0.1-0.4,0.1-0.5-0.1-0.8c-0.1-0.4-0.3-0.4-0.4-0.7c-0.1-0.4,0.1-0.5,0-0.9c-0.1-0.4-0.4-0.3-0.5-0.7c-0.1-0.4,0-0.4-0.2-0.8
		c-0.1-0.4-0.4-0.3-0.5-0.7c-0.1-0.4,0.1-0.5,0-0.9c-0.1-0.4-0.4-0.3-0.5-0.7c-0.1-0.4,0-0.4-0.1-0.8c-0.1-0.4,0-0.4-0.2-0.8
		c-0.1-0.4-0.1-0.4-0.2-0.8c-0.1-0.4-0.4-0.3-0.5-0.7c-0.1-0.4,0-0.4-0.1-0.8c-0.1-0.4,0.2-0.5,0-0.9c-0.1-0.4-0.3-0.4-0.4-0.7
		c-0.1-0.4-0.3-0.3-0.4-0.7c-0.1-0.4,0-0.4-0.1-0.8c-0.1-0.4-0.3-0.4-0.4-0.7c-0.1-0.4-0.2-0.4-0.3-0.8s-0.6-0.8-0.2-1
		c0.4-0.2,0.4,0.4,0.7,0.7c0.3,0.3,0.4,0.2,0.7,0.5c0.3,0.3,0,0.6,0.3,0.9c0.3,0.3,0.5,0.1,0.8,0.4c0.3,0.3,0.2,0.3,0.5,0.6
		c0.3,0.3,0.1,0.5,0.4,0.8c0.3,0.3,0.4,0.2,0.7,0.5c0.3,0.3,0.1,0.5,0.3,0.8c0.3,0.3,0.4,0.2,0.7,0.5c0.3,0.3,0.3,0.3,0.5,0.6
		c0.3,0.3,0.1,0.4,0.4,0.7c0.3,0.3,0.5,0.1,0.8,0.4c0.3,0.3,0.1,0.5,0.4,0.8c0.3,0.3,0.2,0.4,0.5,0.7c0.3,0.3,0.6,0,0.9,0.3
		c0.3,0.3,0.1,0.5,0.4,0.8c0.3,0.3,0.2,0.4,0.5,0.7c0.3,0.3,0.3,0.3,0.6,0.6c0.3,0.3,0.4,0.2,0.7,0.5c0.3,0.3,0.2,0.3,0.5,0.6
		c0.3,0.3,0.1,0.5,0.4,0.8c0.3,0.3,0.5,0.1,0.7,0.5C418.7,60.1,418.6,60.3,419,60.2z"/>
</g>
</svg>
