<svg id="Layer_2" data-name="Layer 2" xmlns="http://www.w3.org/2000/svg" viewBox="0 0 264.773 85.039"><defs><style>.cls-1{fill:#fff;}</style></defs><path class="cls-1" d="M169.122,43.593h-2.771a.624.624,0,0,1-.556-.908l6.928-13.59-6.916-13.3a.624.624,0,0,1,.554-.912h2.762a5.713,5.713,0,0,1,5.4,3.033L181.062,29.1l-6.443,11.182a5.925,5.925,0,0,1-5.5,3.316"/><path class="cls-1" d="M108.072,45.876V41.031c.017-4.612,1.692-6.591,7.049-6.591,5.385,0,6.939,2,6.939,6.661v4.775c0,4.663-1.443,6.606-6.939,6.606s-7.05-2-7.05-6.606m-5.663-6.364v6.475c0,7.938,4.693,11.851,12.686,11.851,8.494,0,12.685-3.913,12.685-11.851V41.212c0-8.049-3.887-12.1-11.6-12.1-3.885,0-6.605,1.221-8.1,3.608V22.287a3.965,3.965,0,0,0-2.832-3.733,5.729,5.729,0,0,0-1.985-.158.849.849,0,0,0-.847.845Z"/><path class="cls-1" d="M95.767,34.119a4.268,4.268,0,0,0-3.078-4.058,4.224,4.224,0,0,0-1.186-.172h-.972a.922.922,0,0,0-.921.918V53.534a4.279,4.279,0,0,0,4.265,4.229h.971a.922.922,0,0,0,.921-.918Z"/><path class="cls-1" d="M29.014,46.788c0,6.943,3.744,10.956,12,10.974h.056c8.255-.018,12-4.031,12-10.974V33.853A3.965,3.965,0,0,0,49.119,29.9h-.9a.855.855,0,0,0-.852.854l.005,16.038c0,3.558-1.157,5.537-6.331,5.544s-6.332-1.986-6.332-5.544l0-12.956a3.983,3.983,0,0,0-2.85-3.776,7.828,7.828,0,0,0-2-.16.855.855,0,0,0-.852.854Z"/><path class="cls-1" d="M82.968,40.05c0-6.943-3.744-10.956-12-10.974h-.056c-8.255.018-12,4.031-12,10.974V53.8a3.964,3.964,0,0,0,3.949,3.957h.9a.856.856,0,0,0,.853-.854L64.609,40.05c0-3.558,1.158-5.537,6.332-5.544s6.332,1.986,6.332,5.544l0,13.77A3.984,3.984,0,0,0,80.117,57.6a7.859,7.859,0,0,0,2,.159.856.856,0,0,0,.853-.854Z"/><path class="cls-1" d="M159,41.212c0-8.049-3.886-12.1-11.6-12.1-3.886,0-6.606,1.221-8.1,3.608V22.287a3.962,3.962,0,0,0-2.831-3.733,5.729,5.729,0,0,0-1.985-.158.848.848,0,0,0-.847.845V53.8a3.964,3.964,0,0,0,3.949,3.957h.867a.856.856,0,0,0,.853-.854l-.006-15.871c.017-4.612,1.692-6.591,7.05-6.591,5.385,0,6.939,2,6.939,6.661V53.8a3.964,3.964,0,0,0,3.949,3.957h.922A.856.856,0,0,0,159,56.9Z"/></svg>